<?xml version="1.0" encoding="UTF-8"?>
<svg xmlns="http://www.w3.org/2000/svg" xmlns:xlink="http://www.w3.org/1999/xlink" width="156pt" height="43pt" viewBox="0 0 156 43" version="1.1">
<defs>
<clipPath id="clip1">
  <path d="M 0 0 L 156 0 L 156 42.601562 L 0 42.601562 Z M 0 0 "/>
</clipPath>
</defs>
<g id="surface1">
<g clip-path="url(#clip1)" clip-rule="nonzero">
<path style=" stroke:none;fill-rule:evenodd;fill:rgb(100%,100%,100%);fill-opacity:1;" d="M 0 0 L 155.898438 0 L 155.898438 42.5 L 0 42.5 Z M 0 0 "/>
</g>
<path style=" stroke:none;fill-rule:evenodd;fill:rgb(13.723755%,12.155151%,12.548828%);fill-opacity:1;" d="M 45.601562 32.601562 L 45.601562 25.300781 C 45.601562 24 45.601562 22.898438 45.5 21.898438 L 47.199219 21.898438 L 47.300781 24 C 47.800781 22.601562 49 21.699219 50.300781 21.699219 C 50.5 21.699219 50.699219 21.699219 50.898438 21.800781 L 50.898438 23.601562 C 50.699219 23.5 50.5 23.5 50.199219 23.5 C 48.800781 23.5 47.800781 24.5 47.601562 26 C 47.5 26.300781 47.5 26.601562 47.5 26.898438 L 47.5 32.601562 Z M 45.601562 32.601562 "/>
<path style=" stroke:none;fill-rule:evenodd;fill:rgb(13.723755%,12.155151%,12.548828%);fill-opacity:1;" d="M 62.199219 21.898438 L 62.199219 29.699219 C 62.199219 30.800781 62.199219 31.800781 62.300781 32.601562 L 60.5 32.601562 L 60.398438 30.898438 C 59.898438 31.699219 58.800781 32.898438 56.898438 32.898438 C 55.199219 32.898438 53.199219 31.898438 53.199219 28.199219 L 53.199219 21.898438 L 55.101562 21.898438 L 55.101562 27.898438 C 55.101562 29.898438 55.800781 31.300781 57.5 31.300781 C 58.800781 31.300781 59.699219 30.398438 60.101562 29.5 C 60.199219 29.199219 60.199219 28.898438 60.199219 28.5 L 60.199219 21.898438 Z M 62.199219 21.898438 "/>
<path style=" stroke:none;fill-rule:evenodd;fill:rgb(13.723755%,12.155151%,12.548828%);fill-opacity:1;" d="M 65.898438 32.601562 L 65.898438 24.800781 C 65.898438 23.699219 65.800781 22.800781 65.800781 21.898438 L 67.5 21.898438 L 67.601562 23.699219 L 67.699219 23.699219 C 68.199219 22.699219 69.5 21.699219 71.199219 21.699219 C 72.699219 21.699219 75 22.601562 75 26.199219 L 75 32.601562 L 73 32.601562 L 73 26.398438 C 73 24.699219 72.398438 23.300781 70.601562 23.300781 C 69.300781 23.300781 68.300781 24.199219 68 25.300781 C 67.898438 25.5 67.800781 25.898438 67.800781 26.199219 L 67.800781 32.601562 Z M 65.898438 32.601562 "/>
<path style=" stroke:none;fill-rule:evenodd;fill:rgb(13.723755%,12.155151%,12.548828%);fill-opacity:1;" d="M 78.601562 32.601562 L 78.601562 17 L 80.601562 17 L 80.601562 32.601562 Z M 78.601562 32.601562 "/>
<path style=" stroke:none;fill-rule:evenodd;fill:rgb(13.723755%,12.155151%,12.548828%);fill-opacity:1;" d="M 92.800781 27.601562 L 85.300781 27.601562 C 85.398438 30.300781 87 31.398438 89 31.398438 C 90.398438 31.398438 91.199219 31.101562 92 30.800781 L 92.300781 32.199219 C 91.601562 32.5 90.398438 32.898438 88.699219 32.898438 C 85.398438 32.898438 83.5 30.699219 83.5 27.5 C 83.5 24.199219 85.398438 21.699219 88.5 21.699219 C 92 21.699219 92.898438 24.699219 92.898438 26.699219 C 92.898438 27.101562 92.898438 27.398438 92.800781 27.601562 Z M 85.398438 26.199219 L 91 26.199219 C 91 25 90.5 23.101562 88.398438 23.101562 C 86.300781 23.101562 85.5 24.898438 85.398438 26.199219 Z M 85.398438 26.199219 "/>
<path style=" stroke:none;fill-rule:evenodd;fill:rgb(13.723755%,12.155151%,12.548828%);fill-opacity:1;" d="M 94.398438 21.898438 L 96.5 21.898438 L 98.601562 27.898438 C 99 28.898438 99.199219 29.800781 99.5 30.699219 C 99.800781 29.800781 100.101562 28.898438 100.398438 27.898438 L 102.5 21.898438 L 104.5 21.898438 L 100.300781 32.601562 L 98.5 32.601562 Z M 94.398438 21.898438 "/>
<path style=" stroke:none;fill-rule:evenodd;fill:rgb(13.723755%,12.155151%,12.548828%);fill-opacity:1;" d="M 115.199219 27.601562 L 107.699219 27.601562 C 107.699219 30.300781 109.398438 31.398438 111.300781 31.398438 C 112.699219 31.398438 113.601562 31.101562 114.300781 30.800781 L 114.601562 32.199219 C 114 32.5 112.800781 32.898438 111.101562 32.898438 C 107.800781 32.898438 105.800781 30.699219 105.800781 27.5 C 105.800781 24.199219 107.699219 21.699219 110.800781 21.699219 C 114.300781 21.699219 115.199219 24.699219 115.199219 26.699219 C 115.199219 27.101562 115.199219 27.398438 115.199219 27.601562 Z M 107.699219 26.199219 L 113.398438 26.199219 C 113.398438 25 112.800781 23.101562 110.699219 23.101562 C 108.699219 23.101562 107.898438 24.898438 107.699219 26.199219 Z M 107.699219 26.199219 "/>
<path style=" stroke:none;fill-rule:evenodd;fill:rgb(13.723755%,12.155151%,12.548828%);fill-opacity:1;" d="M 118.101562 32.601562 L 118.101562 17 L 120 17 L 120 32.601562 Z M 118.101562 32.601562 "/>
<path style=" stroke:none;fill-rule:evenodd;fill:rgb(13.723755%,12.155151%,12.548828%);fill-opacity:1;" d="M 123.101562 31.898438 L 123.601562 30.398438 C 124.101562 30.699219 125.398438 31.300781 126.800781 31.300781 C 129.300781 31.300781 130.101562 29.699219 130 28.5 C 130 26.5 128.199219 25.601562 126.300781 25.601562 L 125.199219 25.601562 L 125.199219 24.199219 L 126.300781 24.199219 C 127.699219 24.199219 129.5 23.398438 129.5 21.800781 C 129.5 20.601562 128.800781 19.601562 127 19.601562 C 125.898438 19.601562 124.699219 20.101562 124.101562 20.601562 L 123.601562 19.101562 C 124.398438 18.601562 125.800781 18 127.398438 18 C 130.199219 18 131.5 19.699219 131.5 21.5 C 131.5 22.898438 130.601562 24.199219 128.800781 24.800781 L 128.800781 24.898438 C 130.601562 25.199219 132 26.601562 132 28.5 C 132 30.800781 130.199219 32.898438 126.800781 32.898438 C 125.101562 32.898438 123.800781 32.300781 123.101562 31.898438 Z M 123.101562 31.898438 "/>
<path style="fill-rule:evenodd;fill:rgb(13.723755%,12.155151%,12.548828%);fill-opacity:1;stroke-width:1.10369;stroke-linecap:butt;stroke-linejoin:round;stroke:rgb(100%,100%,100%);stroke-opacity:1;stroke-miterlimit:10;" d="M 24.199219 28.800781 C 25.199219 28.898438 26.199219 28.800781 27.101562 28.601562 C 23.898438 25.898438 21.800781 22.699219 20.300781 19 C 18.199219 17.5 16.398438 15.601562 15.199219 13.300781 C 14.699219 14.398438 14.300781 15.601562 14.199219 16.898438 C 13.699219 23 18.101562 28.300781 24.199219 28.800781 Z M 24.199219 28.800781 " transform="matrix(1,0,0,-1,0,43)"/>
<path style="fill-rule:evenodd;fill:rgb(13.723755%,12.155151%,12.548828%);fill-opacity:1;stroke-width:1.10369;stroke-linecap:butt;stroke-linejoin:round;stroke:rgb(100%,100%,100%);stroke-opacity:1;stroke-miterlimit:10;" d="M 32.101562 23.199219 C 27.800781 22.800781 23.601562 21.300781 20.300781 19 C 21.800781 22.699219 23.898438 25.898438 27.101562 28.601562 C 30.398438 28 33.101562 26 34.699219 23.199219 C 33.800781 23.199219 33.101562 23.199219 32.101562 23.199219 Z M 32.101562 23.199219 " transform="matrix(1,0,0,-1,0,43)"/>
<path style="fill-rule:evenodd;fill:rgb(13.723755%,12.155151%,12.548828%);fill-opacity:1;stroke-width:1.10369;stroke-linecap:butt;stroke-linejoin:round;stroke:rgb(100%,100%,100%);stroke-opacity:1;stroke-miterlimit:10;" d="M 26.101562 7 C 23.898438 6.800781 21.800781 7.300781 20 8.199219 C 24.199219 14.699219 29.699219 17.101562 36 19.199219 C 36 19 36 19 36 18.800781 C 36.5 12.800781 32.101562 7.5 26.101562 7 Z M 26.101562 7 " transform="matrix(1,0,0,-1,0,43)"/>
<path style="fill-rule:evenodd;fill:rgb(13.723755%,12.155151%,12.548828%);fill-opacity:1;stroke-width:1.10369;stroke-linecap:butt;stroke-linejoin:round;stroke:rgb(100%,100%,100%);stroke-opacity:1;stroke-miterlimit:10;" d="M 34.699219 23.199219 C 35.300781 22 35.800781 20.601562 36 19.199219 C 29.699219 17.101562 24.199219 14.699219 20 8.199219 C 19.300781 8.601562 18.699219 9 18.101562 9.5 C 18.5 13 19.199219 16.199219 20.300781 19 C 23.601562 21.398438 27.800781 22.800781 32.101562 23.199219 C 33.101562 23.300781 33.800781 23.199219 34.699219 23.199219 Z M 34.699219 23.199219 " transform="matrix(1,0,0,-1,0,43)"/>
<path style="fill-rule:evenodd;fill:rgb(13.723755%,12.155151%,12.548828%);fill-opacity:1;stroke-width:1.10369;stroke-linecap:butt;stroke-linejoin:round;stroke:rgb(100%,100%,100%);stroke-opacity:1;stroke-miterlimit:10;" d="M 15.199219 13.300781 C 16.398438 15.601562 18.199219 17.5 20.300781 19 C 19.199219 16.199219 18.5 13 18.101562 9.5 C 16.898438 10.601562 15.800781 11.898438 15.199219 13.300781 Z M 15.199219 13.300781 " transform="matrix(1,0,0,-1,0,43)"/>
<path style="fill-rule:evenodd;fill:rgb(95.292664%,40.391541%,9.017944%);fill-opacity:1;stroke-width:1.10369;stroke-linecap:butt;stroke-linejoin:round;stroke:rgb(100%,100%,100%);stroke-opacity:1;stroke-miterlimit:10;" d="M 24.199219 28.800781 C 25.199219 28.898438 26.199219 28.800781 27.101562 28.601562 C 23.898438 25.898438 21.800781 22.699219 20.300781 19 C 18.199219 17.5 16.398438 15.601562 15.199219 13.300781 C 14.699219 14.398438 14.300781 15.601562 14.199219 16.898438 C 13.699219 23 18.101562 28.300781 24.199219 28.800781 Z M 24.199219 28.800781 " transform="matrix(1,0,0,-1,0,43)"/>
<path style="fill-rule:evenodd;fill:rgb(92.939758%,10.978699%,14.115906%);fill-opacity:1;stroke-width:1.10369;stroke-linecap:butt;stroke-linejoin:round;stroke:rgb(100%,100%,100%);stroke-opacity:1;stroke-miterlimit:10;" d="M 32.101562 23.199219 C 27.800781 22.800781 23.601562 21.300781 20.300781 19 C 21.800781 22.699219 23.898438 25.898438 27.101562 28.601562 C 30.398438 28 33.101562 26 34.699219 23.199219 C 33.800781 23.199219 33.101562 23.199219 32.101562 23.199219 Z M 32.101562 23.199219 " transform="matrix(1,0,0,-1,0,43)"/>
<path style="fill-rule:evenodd;fill:rgb(95.292664%,40.391541%,9.017944%);fill-opacity:1;stroke-width:1.10369;stroke-linecap:butt;stroke-linejoin:round;stroke:rgb(100%,100%,100%);stroke-opacity:1;stroke-miterlimit:10;" d="M 26.101562 7 C 23.898438 6.800781 21.800781 7.300781 20 8.199219 C 24.199219 14.699219 29.699219 17.101562 36 19.199219 C 36 19 36 19 36 18.800781 C 36.5 12.800781 32.101562 7.5 26.101562 7 Z M 26.101562 7 " transform="matrix(1,0,0,-1,0,43)"/>
<path style="fill-rule:evenodd;fill:rgb(92.939758%,10.978699%,14.115906%);fill-opacity:1;stroke-width:1.10369;stroke-linecap:butt;stroke-linejoin:round;stroke:rgb(100%,100%,100%);stroke-opacity:1;stroke-miterlimit:10;" d="M 34.699219 23.199219 C 35.300781 22 35.800781 20.601562 36 19.199219 C 29.699219 17.101562 24.199219 14.699219 20 8.199219 C 19.300781 8.601562 18.699219 9 18.101562 9.5 C 18.5 13 19.199219 16.199219 20.300781 19 C 23.601562 21.398438 27.800781 22.800781 32.101562 23.199219 C 33.101562 23.300781 33.800781 23.199219 34.699219 23.199219 Z M 34.699219 23.199219 " transform="matrix(1,0,0,-1,0,43)"/>
<path style="fill-rule:evenodd;fill:rgb(92.939758%,10.978699%,14.115906%);fill-opacity:1;stroke-width:1.10369;stroke-linecap:butt;stroke-linejoin:round;stroke:rgb(100%,100%,100%);stroke-opacity:1;stroke-miterlimit:10;" d="M 15.199219 13.300781 C 16.398438 15.601562 18.199219 17.5 20.300781 19 C 19.199219 16.199219 18.5 13 18.101562 9.5 C 16.898438 10.601562 15.800781 11.898438 15.199219 13.300781 Z M 15.199219 13.300781 " transform="matrix(1,0,0,-1,0,43)"/>
</g>
</svg>
